<?xml version="1.0" encoding="iso-8859-1"?>
<!-- Generator: Adobe Illustrator 16.0.0, SVG Export Plug-In . SVG Version: 6.00 Build 0)  -->
<!DOCTYPE svg PUBLIC "-//W3C//DTD SVG 1.1//EN" "http://www.w3.org/Graphics/SVG/1.1/DTD/svg11.dtd">
<svg version="1.1" id="Capa_1" xmlns="http://www.w3.org/2000/svg" xmlns:xlink="http://www.w3.org/1999/xlink" x="0px" y="0px"
	 width="393.788px" height="393.788px" viewBox="0 0 393.788 393.788" style="enable-background:new 0 0 393.788 393.788;"
	 xml:space="preserve">
<g>
	<g>
		<path style="fill:#030303;" d="M196.882,393.788c-9.354,0-16.963-7.616-16.963-16.959v-96.36H44.148v-16.965
			c0-26.778,22.509-50.313,61.903-64.905l17.137-137.775C80.463,49.278,71.3,30.734,71.3,16.962V0h251.184v16.962
			c0,13.777-9.154,32.321-51.891,43.86l17.143,137.787c39.396,14.592,61.903,38.11,61.903,64.894v16.965H213.847v96.36
			C213.847,386.171,206.243,393.788,196.882,393.788z M55.859,268.758H191.63v108.07c0,2.893,2.355,5.249,5.252,5.249
			c2.898,0,5.252-2.356,5.252-5.249v-108.07h135.794v-5.255c0-22.272-20.962-42.331-57.5-55.07l-3.431-1.201L257.693,51.965
			l5.078-1.229c30.957-7.502,48.003-19.498,48.003-33.779v-5.252H83.011v5.252c0,14.275,17.051,26.271,48.005,33.779l5.078,1.229
			l-19.315,155.25l-3.434,1.2c-36.535,12.745-57.486,32.815-57.486,55.082V268.758z"/>
	</g>
</g>
<g>
</g>
<g>
</g>
<g>
</g>
<g>
</g>
<g>
</g>
<g>
</g>
<g>
</g>
<g>
</g>
<g>
</g>
<g>
</g>
<g>
</g>
<g>
</g>
<g>
</g>
<g>
</g>
<g>
</g>
</svg>
